# xmcd CD database file
#
# Track frame offsets:
#	150
#	20527
#	38690
#
# Disc length: 786 seconds
#
# Revision: 0
# Processed by: cddbd v1.5PL3 Copyright (c) Steve Scherf et al.
# Submitted via: CDex 1.50
#
DISCID=19031003
DTITLE=辛島美登里 - あなたは知らない
DYEAR=1992
DGENRE=J-POP
TTITLE0=あなたは知らない
TTITLE1=SEE YOU AGAIN
TTITLE2=あなたは知らない(Karaoke)
EXTD=YEAR: 1992
EXTT0=
EXTT1=
EXTT2=
PLAYORDER=
